ModelForces
version=1
nRows=4
nColumns=206
inDegrees=no

This file contains the forces exerted on a model during a simulation.

A force is a generalized force, meaning that it can be either a force (N) or a torque (Nm).

Units are S.I. units (second, meters, Newtons, ...)
Angles are in degrees.

endheader
time	glut_med1_r	glut_med2_r	glut_med3_r	glut_min1_r	glut_min2_r	glut_min3_r	semimem_r	semiten_r	bifemlh_r	bifemsh_r	sar_r	add_long_r	add_brev_r	add_mag1_r	add_mag2_r	add_mag3_r	tfl_r	pect_r	grac_r	glut_max1_r	glut_max2_r	glut_max3_r	iliacus_r	psoas_r	quad_fem_r	gem_r	peri_r	rect_fem_r	vas_med_r	vas_int_r	vas_lat_r	med_gas_r	lat_gas_r	soleus_r	tib_post_r	flex_dig_r	flex_hal_r	tib_ant_r	per_brev_r	per_long_r	per_tert_r	ext_dig_r	ext_hal_r	glut_med1_l	glut_med2_l	glut_med3_l	glut_min1_l	glut_min2_l	glut_min3_l	semimem_l	semiten_l	bifemlh_l	bifemsh_l	sar_l	add_long_l	add_brev_l	add_mag1_l	add_mag2_l	add_mag3_l	tfl_l	pect_l	grac_l	glut_max1_l	glut_max2_l	glut_max3_l	iliacus_l	psoas_l	quad_fem_l	gem_l	peri_l	rect_fem_l	vas_med_l	vas_int_l	vas_lat_l	med_gas_l	lat_gas_l	soleus_l	tib_post_l	flex_dig_l	flex_hal_l	tib_ant_l	per_brev_l	per_long_l	per_tert_l	ext_dig_l	ext_hal_l	ercspn_r	ercspn_l	intobl_r	intobl_l	extobl_r	extobl_l	femur_lat_meniscii_l.femur_lat_l.force.X	femur_lat_meniscii_l.femur_lat_l.force.Y	femur_lat_meniscii_l.femur_lat_l.force.Z	femur_lat_meniscii_l.femur_lat_l.torque.X	femur_lat_meniscii_l.femur_lat_l.torque.Y	femur_lat_meniscii_l.femur_lat_l.torque.Z	femur_lat_meniscii_l.meniscus_lat_l.force.X	femur_lat_meniscii_l.meniscus_lat_l.force.Y	femur_lat_meniscii_l.meniscus_lat_l.force.Z	femur_lat_meniscii_l.meniscus_lat_l.torque.X	femur_lat_meniscii_l.meniscus_lat_l.torque.Y	femur_lat_meniscii_l.meniscus_lat_l.torque.Z	femur_med_meniscii_l.femur_med_l.force.X	femur_med_meniscii_l.femur_med_l.force.Y	femur_med_meniscii_l.femur_med_l.force.Z	femur_med_meniscii_l.femur_med_l.torque.X	femur_med_meniscii_l.femur_med_l.torque.Y	femur_med_meniscii_l.femur_med_l.torque.Z	femur_med_meniscii_l.meniscus_med_l.force.X	femur_med_meniscii_l.meniscus_med_l.force.Y	femur_med_meniscii_l.meniscus_med_l.force.Z	femur_med_meniscii_l.meniscus_med_l.torque.X	femur_med_meniscii_l.meniscus_med_l.torque.Y	femur_med_meniscii_l.meniscus_med_l.torque.Z	femur_lat_meniscii_r.femur_lat_r.force.X	femur_lat_meniscii_r.femur_lat_r.force.Y	femur_lat_meniscii_r.femur_lat_r.force.Z	femur_lat_meniscii_r.femur_lat_r.torque.X	femur_lat_meniscii_r.femur_lat_r.torque.Y	femur_lat_meniscii_r.femur_lat_r.torque.Z	femur_lat_meniscii_r.meniscus_lat_r.force.X	femur_lat_meniscii_r.meniscus_lat_r.force.Y	femur_lat_meniscii_r.meniscus_lat_r.force.Z	femur_lat_meniscii_r.meniscus_lat_r.torque.X	femur_lat_meniscii_r.meniscus_lat_r.torque.Y	femur_lat_meniscii_r.meniscus_lat_r.torque.Z	femur_med_meniscii_r.femur_med_r.force.X	femur_med_meniscii_r.femur_med_r.force.Y	femur_med_meniscii_r.femur_med_r.force.Z	femur_med_meniscii_r.femur_med_r.torque.X	femur_med_meniscii_r.femur_med_r.torque.Y	femur_med_meniscii_r.femur_med_r.torque.Z	femur_med_meniscii_r.meniscus_med_r.force.X	femur_med_meniscii_r.meniscus_med_r.force.Y	femur_med_meniscii_r.meniscus_med_r.force.Z	femur_med_meniscii_r.meniscus_med_r.torque.X	femur_med_meniscii_r.meniscus_med_r.torque.Y	femur_med_meniscii_r.meniscus_med_r.torque.Z	femur_med_tibia_l.tibia_upper_l.force.X	femur_med_tibia_l.tibia_upper_l.force.Y	femur_med_tibia_l.tibia_upper_l.force.Z	femur_med_tibia_l.tibia_upper_l.torque.X	femur_med_tibia_l.tibia_upper_l.torque.Y	femur_med_tibia_l.tibia_upper_l.torque.Z	femur_med_tibia_l.femur_med_l.force.X	femur_med_tibia_l.femur_med_l.force.Y	femur_med_tibia_l.femur_med_l.force.Z	femur_med_tibia_l.femur_med_l.torque.X	femur_med_tibia_l.femur_med_l.torque.Y	femur_med_tibia_l.femur_med_l.torque.Z	femur_lat_tibia_l.tibia_upper_l.force.X	femur_lat_tibia_l.tibia_upper_l.force.Y	femur_lat_tibia_l.tibia_upper_l.force.Z	femur_lat_tibia_l.tibia_upper_l.torque.X	femur_lat_tibia_l.tibia_upper_l.torque.Y	femur_lat_tibia_l.tibia_upper_l.torque.Z	femur_lat_tibia_l.femur_lat_l.force.X	femur_lat_tibia_l.femur_lat_l.force.Y	femur_lat_tibia_l.femur_lat_l.force.Z	femur_lat_tibia_l.femur_lat_l.torque.X	femur_lat_tibia_l.femur_lat_l.torque.Y	femur_lat_tibia_l.femur_lat_l.torque.Z	femur_med_tibia_r.tibia_upper_r.force.X	femur_med_tibia_r.tibia_upper_r.force.Y	femur_med_tibia_r.tibia_upper_r.force.Z	femur_med_tibia_r.tibia_upper_r.torque.X	femur_med_tibia_r.tibia_upper_r.torque.Y	femur_med_tibia_r.tibia_upper_r.torque.Z	femur_med_tibia_r.femur_med_r.force.X	femur_med_tibia_r.femur_med_r.force.Y	femur_med_tibia_r.femur_med_r.force.Z	femur_med_tibia_r.femur_med_r.torque.X	femur_med_tibia_r.femur_med_r.torque.Y	femur_med_tibia_r.femur_med_r.torque.Z	femur_lat_tibia_r.tibia_upper_r.force.X	femur_lat_tibia_r.tibia_upper_r.force.Y	femur_lat_tibia_r.tibia_upper_r.force.Z	femur_lat_tibia_r.tibia_upper_r.torque.X	femur_lat_tibia_r.tibia_upper_r.torque.Y	femur_lat_tibia_r.tibia_upper_r.torque.Z	femur_lat_tibia_r.femur_lat_r.force.X	femur_lat_tibia_r.femur_lat_r.force.Y	femur_lat_tibia_r.femur_lat_r.force.Z	femur_lat_tibia_r.femur_lat_r.torque.X	femur_lat_tibia_r.femur_lat_r.torque.Y	femur_lat_tibia_r.femur_lat_r.torque.Z	aACL_R	pACL_R	aPCL_R	pPCL_R	aMCL_R	mMCL_R	pMCL_R	aLCL_R	mLCL_R	pLCL_R	aPCL_L	pPCL_L	aMCL_L	aLCL_L	ground_prescribedForce_-80_fx	ground_prescribedForce_-80_fy	ground_prescribedForce_-80_fz
      0.37085488	      7.81235380	      5.84777230	      6.26201106	      2.74067621	      3.26739696	      3.30434826	      0.00000000	      3.59831492	      4.24045925	      5.80379125	      1.55709579	      5.79575475	      4.26719136	      3.01200640	      2.53386738	      4.13189320	      3.19756693	      2.30798125	      1.48286833	      3.77344702	      5.73492123	      4.28345851	     22.97778067	     13.33844916	      3.74063091	      2.90773443	      4.29937784	    134.32434892	     44.52135892	     29.41388938	     61.27443301	      0.00000000	      0.00000000	     14.13975480	     13.22940298	      2.67948236	      2.03028918	     12.23752368	      3.77324008	      8.12602784	      7.30617543	      7.05314595	      2.25994675	      7.81235380	      5.84777230	      6.26201106	      2.74067621	      3.26739696	      3.30434826	      9.12931823	      4.22488153	      8.00291006	      7.44290475	      1.56624628	      5.79575475	      4.26719136	      3.01200640	      2.53386738	      4.13189320	      4.18638984	      2.30798125	      1.60723870	      3.77344702	      5.73492123	      4.28345851	     22.97778067	     13.33844916	      3.74063091	      2.90773443	      4.29937784	     11.10292423	      6.80944693	      7.81585592	      8.40277934	     14.85275571	      6.89707343	     32.67539926	     42.98552739	      2.93774816	      3.08152073	      8.77994479	      4.52984306	     12.90851818	      2.06350892	      5.49299009	      1.74076895	     25.77711654	     25.77711654	      9.30254703	      9.30254703	     27.07638266	     27.07638266	      2.76307435	     50.99597937	     -9.56042239	      5.21997485	     -0.02578839	      1.48581788	     -2.76307435	    -50.99597937	      9.56042239	     -1.74637766	      0.02558040	     -0.48301696	     -3.31599387	     20.97615968	     -3.40468921	      0.94473225	     -0.02138609	     -1.00501789	      3.31599387	    -20.97615968	      3.40468921	      0.28075727	      0.00368718	     -0.29758878	    192.88505829	     53.10668214	     41.74706594	    -18.27668228	      4.82123714	     78.58305740	   -192.88505829	    -53.10668214	    -41.74706594	      1.89145365	     -6.97306379	     -0.14060693	    132.94694929	    -41.31326553	    -18.59910477	      6.68561099	     -2.63869953	     53.77001301	   -132.94694929	     41.31326553	     18.59910477	      0.52341360	      2.47027339	     -1.86557604	      0.00000000	      0.00000000	      0.00000000	      0.00000000	      0.00000000	      0.00000000	      0.00000000	      0.00000000	      0.00000000	      0.00000000	      0.00000000	      0.00000000	      0.00000000	      0.00000000	      0.00000000	      0.00000000	      0.00000000	      0.00000000	      0.00000000	      0.00000000	      0.00000000	      0.00000000	      0.00000000	      0.00000000	   -422.62056649	    -46.98317904	     72.26624032	     -1.08764822	      7.33513368	     -1.50152815	    422.62056649	     46.98317904	    -72.26624032	     30.16661234	     -7.50581008	    171.44740211	      0.00000000	      0.00000000	      0.00000000	      0.00000000	      0.00000000	      0.00000000	      0.00000000	      0.00000000	      0.00000000	      0.00000000	      0.00000000	      0.00000000	      1.69358186	      0.00000000	    573.40778047	    206.32242445	     27.00718417	     12.36925129	      2.85873673	      0.00000000	      0.00000000	      0.00000000	      0.00000000	      0.00000000	      0.00000001	      0.00000000	     19.10100000	   -108.32880000	      0.00000000
      0.37272213	      7.80599669	      5.84340012	      6.25727096	      2.73871409	      3.26527272	      3.30166507	      0.00000000	      3.59243639	      4.23054715	      5.79334957	      1.55712945	      5.79137073	      4.26416416	      3.00977053	      2.53194149	      4.12841930	      3.19155079	      2.30631831	      1.48145230	      3.77062716	      5.73062266	      4.28018930	     22.96984512	     13.32950865	      3.73789447	      2.90644913	      4.29444158	    134.35867369	     44.53727882	     29.41842494	     61.33348695	      0.00000000	      0.00000000	     14.06500509	     13.21642001	      2.67672173	      2.06794712	     12.22620626	      3.78891916	      8.11362207	      7.32814011	      6.98982004	      2.23061819	      7.80599669	      5.84340012	      6.25727096	      2.73871409	      3.26527272	      3.30166507	      9.12011994	      4.22147625	      7.99523104	      7.43745642	      1.56513010	      5.79137073	      4.26416416	      3.00977053	      2.53194149	      4.12841930	      4.18423920	      2.30631831	      1.60607336	      3.77062716	      5.73062266	      4.28018930	     22.96984512	     13.32950865	      3.73789447	      2.90644913	      4.29444158	     11.09246379	      6.80423653	      7.80976037	      8.39625762	     14.83245202	      6.88763441	     32.63790868	     42.97062281	      2.93349818	      3.07778808	      8.77205898	      4.52516507	     12.89776883	      2.06212318	      5.48749402	      1.73915977	     25.75861989	     25.75861989	      9.29527924	      9.29527924	     27.06985368	     27.06985368	      2.76307435	     50.99597937	     -9.56042239	      5.21997485	     -0.02578839	      1.48581788	     -2.76307435	    -50.99597937	      9.56042239	     -1.74637766	      0.02558040	     -0.48301696	     -3.31599387	     20.97615968	     -3.40468921	      0.94473225	     -0.02138609	     -1.00501789	      3.31599387	    -20.97615968	      3.40468921	      0.28075727	      0.00368718	     -0.29758878	    192.62751919	     53.22632426	     42.90636594	    -18.75571721	      4.82965057	     78.47707296	   -192.62751919	    -53.22632426	    -42.90636594	      1.90850667	     -7.01328270	     -0.13291562	    133.20598259	    -41.27437828	    -17.45094056	      6.22623749	     -2.63094296	     53.87407056	   -133.20598259	     41.27437828	     17.45094056	      0.52472452	      2.42865470	     -1.86438960	      0.00000000	      0.00000000	      0.00000000	      0.00000000	      0.00000000	      0.00000000	      0.00000000	      0.00000000	      0.00000000	      0.00000000	      0.00000000	      0.00000000	      0.00000000	      0.00000000	      0.00000000	      0.00000000	      0.00000000	      0.00000000	      0.00000000	      0.00000000	      0.00000000	      0.00000000	      0.00000000	      0.00000000	   -422.67415503	    -47.76190307	     70.03043784	     -1.07853301	      7.24527086	     -1.46953730	    422.67415503	     47.76190307	    -70.03043784	     29.26999343	     -7.48037912	    171.46094192	      0.00000000	      0.00000000	      0.00000000	      0.00000000	      0.00000000	      0.00000000	      0.00000000	      0.00000000	      0.00000000	      0.00000000	      0.00000000	      0.00000000	      1.38758220	      0.00000000	    573.23029465	    206.17361007	     26.87600620	     12.25252018	      2.76018092	      0.00000000	      0.00000000	      0.00000000	      0.00000000	      0.00000000	      0.00000001	      0.00000000	     19.10100000	   -108.32880000	      0.00000000
      0.37458939	      7.79979145	      5.83913220	      6.25264394	      2.73679869	      3.26319911	      3.29904597	      0.00000000	      3.58569859	      4.22104045	      5.77895423	      1.55441670	      5.78709131	      4.26120904	      3.00758798	      2.53006157	      4.12502844	      3.18407145	      2.30469498	      1.47941678	      3.76787457	      5.72642665	      4.27699811	     22.96209903	     13.32078203	      3.73522324	      2.90519459	      4.28961964	    134.37668490	     44.52552940	     29.40158640	     61.34928839	      0.00000000	      0.00000000	     13.98401657	     13.19688567	      2.67508439	      2.10701107	     12.21892425	      3.80387996	      8.10183151	      7.34768746	      6.92430413	      2.20012049	      7.79979145	      5.83913220	      6.25264394	      2.73679869	      3.26319911	      3.29904597	      9.11113979	      4.21815230	      7.98773478	      7.43213794	      1.56404049	      5.78709131	      4.26120904	      3.00758798	      2.53006157	      4.12502844	      4.18214000	      2.30469498	      1.60493579	      3.76787457	      5.72642665	      4.27699811	     22.96209903	     13.32078203	      3.73522324	      2.90519459	      4.28961964	     11.08225255	      6.79915054	      7.80381046	      8.38989174	     14.81259299	      6.87840208	     32.60128764	     42.95606904	      2.92932314	      3.07413239	      8.76436143	      4.52059760	     12.88726453	      2.06077055	      5.48214463	      1.73759342	     25.74056378	     25.74056378	      9.28818495	      9.28818495	     27.06348058	     27.06348058	      2.76307435	     50.99597937	     -9.56042239	      5.21997485	     -0.02578839	      1.48581788	     -2.76307435	    -50.99597937	      9.56042239	     -1.74637766	      0.02558040	     -0.48301696	     -3.31599387	     20.97615968	     -3.40468921	      0.94473225	     -0.02138609	     -1.00501789	      3.31599387	    -20.97615968	      3.40468921	      0.28075727	      0.00368718	     -0.29758878	    192.64990119	     53.25803401	     41.87845761	    -18.33402470	      4.81768060	     78.48688719	   -192.64990119	    -53.25803401	    -41.87845761	      1.89711578	     -6.97361845	     -0.13180733	    133.25015223	    -41.26202432	    -18.29471367	      6.56465965	     -2.64144152	     53.89261282	   -133.25015223	     41.26202432	     18.29471367	      0.52302154	      2.46185109	     -1.86420289	      0.00000000	      0.00000000	      0.00000000	      0.00000000	      0.00000000	      0.00000000	      0.00000000	      0.00000000	      0.00000000	      0.00000000	      0.00000000	      0.00000000	      0.00000000	      0.00000000	      0.00000000	      0.00000000	      0.00000000	      0.00000000	      0.00000000	      0.00000000	      0.00000000	      0.00000000	      0.00000000	      0.00000000	   -422.09820027	    -47.59641912	     71.62490853	     -1.08906162	      7.30168276	     -1.46875420	    422.09820027	     47.59641912	    -71.62490853	     29.91652140	     -7.49112667	    171.22816178	      0.00000000	      0.00000000	      0.00000000	      0.00000000	      0.00000000	      0.00000000	      0.00000000	      0.00000000	      0.00000000	      0.00000000	      0.00000000	      0.00000000	      1.60344094	      0.00000000	    573.01264795	    205.85791267	     27.09934253	     12.46411532	      2.94779344	      0.00000000	      0.00000000	      0.00000000	      0.00000000	      0.00000000	      0.00000001	      0.00000000	     19.10100000	   -108.32880000	      0.00000000
      0.37645664	      7.79373443	      5.83496605	      6.24812729	      2.73492890	      3.26117493	      3.29648943	      0.00000000	      3.58034113	      4.21210763	      5.77064235	      1.55442515	      5.78291396	      4.25832426	      3.00545747	      2.52822650	      4.12171861	      3.17737833	      2.30311032	      1.47834982	      3.76518764	      5.72233073	      4.27388308	     22.95453785	     13.31226415	      3.73261567	      2.90397005	      4.28490941	    134.41316611	     44.54019363	     29.40743645	     61.40626150	      0.00000000	      0.00000000	     13.90221395	     13.16640523	      2.67372152	      2.14678103	     12.20962887	      3.82201690	      8.09458748	      7.36992939	      6.85727578	      2.16800939	      7.79373443	      5.83496605	      6.24812729	      2.73492890	      3.26117493	      3.29648943	      9.10237260	      4.21490774	      7.98041691	      7.42694621	      1.56297682	      5.78291396	      4.25832426	      3.00545747	      2.52822650	      4.12171861	      4.18009102	      2.30311032	      1.60382532	      3.76518764	      5.72233073	      4.27388308	     22.95453785	     13.31226415	      3.73261567	      2.90397005	      4.28490941	     11.07228453	      6.79418600	      7.79800269	      8.38367796	     14.79316909	      6.86937199	     32.56551620	     42.94185783	      2.92522227	      3.07055252	      8.75684760	      4.51613805	     12.87699978	      2.05945026	      5.47693712	      1.73606841	     25.72293768	     25.72293768	      9.28125999	      9.28125999	     27.05725964	     27.05725964	      2.76307435	     50.99597937	     -9.56042239	      5.21997485	     -0.02578839	      1.48581788	     -2.76307435	    -50.99597937	      9.56042239	     -1.74637766	      0.02558040	     -0.48301696	     -3.31599387	     20.97615968	     -3.40468921	      0.94473225	     -0.02138609	     -1.00501789	      3.31599387	    -20.97615968	      3.40468921	      0.28075727	      0.00368718	     -0.29758878	    192.52246731	     53.25879370	     42.65942388	    -18.65523602	      4.82436769	     78.43568399	   -192.52246731	    -53.25879370	    -42.65942388	      1.90670449	     -7.00228702	     -0.13031399	    133.34130389	    -41.16837612	    -17.59598596	      6.28548049	     -2.63615477	     53.92876086	   -133.34130389	     41.16837612	     17.59598596	      0.52375257	      2.43603756	     -1.86060636	      0.00000000	      0.00000000	      0.00000000	      0.00000000	      0.00000000	      0.00000000	      0.00000000	      0.00000000	      0.00000000	      0.00000000	      0.00000000	      0.00000000	      0.00000000	      0.00000000	      0.00000000	      0.00000000	      0.00000000	      0.00000000	      0.00000000	      0.00000000	      0.00000000	      0.00000000	      0.00000000	      0.00000000	   -421.99935264	    -48.04106342	     70.03534077	     -1.08124769	      7.23587674	     -1.44861171	    421.99935264	     48.04106342	    -70.03534077	     29.27732998	     -7.47102939	    171.18336791	      0.00000000	      0.00000000	      0.00000000	      0.00000000	      0.00000000	      0.00000000	      0.00000000	      0.00000000	      0.00000000	      0.00000000	      0.00000000	      0.00000000	      1.40241043	      0.00000000	    572.80225553	    205.64716720	     27.03404203	     12.40209482	      2.89093286	      0.00000000	      0.00000000	      0.00000000	      0.00000000	      0.00000000	      0.00000001	      0.00000000	     19.10100000	   -108.32880000	      0.00000000
